# xmcd
#
# Track frame offsets: 
#        182
#        28852
#        43922
#        52770
#        67077
#        79067
#        88847
#        105440
#        120725
#        138062
#        157107
#        172150
#        184682
#        194960
#        210367
#        223472
#        238212
#        247915
#        258632
#        274375
#        284010
#        299455
#        313810
#
# Disc length: 4463 seconds
#
# Revision: 1
# Processed by: cddbd v1.5.2PL0 Copyright (c) Steve Scherf et al.
# Submitted via: ExactAudioCopyFreeDBPlugin 1.0
#
DISCID=78116d17
DTITLE=Christmas Wishes ( Disc 1 ) - Various
DYEAR=1900
DGENRE=Pop
TTITLE0=Ronnie Milsap - Christmas Medley
TTITLE1=Highway 101 - It Came Upon A Midnight Clear
TTITLE2=Jimmy Dean - Jingle Bells
TTITLE3=Reba McEntire - A Christmas Letter
TTITLE4=Johnny Lee - Please Come Home For Christmas
TTITLE5=Bobby Helms - Jingle Bell Rock
TTITLE6=Emmylou Harris - O Little Town Of Bethlehem
TTITLE7=Randy Travis - White Christmas Makes Me Blue
TTITLE8=Crystal Gayle - Have Yourself A Merry Little Christmas
TTITLE9=Lee Greenwood - Tennesse Christmas
TTITLE10=Sonny Curtis - The Christmas Song
TTITLE11=Jim Reeves - An Old Christmas Card
TTITLE12=George Strait - Frosty The Snowman
TTITLE13=Louise Mandrell - I've Got What You Want For Christmas
TTITLE14=Mel Tillis and Nancy Sinatra - Rudolph The Red Nosed Reindeer
TTITLE15=Hank Williams Jr. - Little Drummer Boy
TTITLE16=Willie Nelson - What A Merry Christmas This Could Be
TTITLE17=Tammy Wynette - Away In A Manager
TTITLE18=Sonny James - Do You Hear What I hear?
TTITLE19=Lynn Anderson - Don't Wish Me A Merry Christmas
TTITLE20=A-Strings With Glen Campbell, The - Brightest And Best
TTITLE21=Forester Sisters, The - This Old White Doorway
TTITLE22=Jimmy Dean - Medley
EXTD=
EXTT0=
EXTT1=
EXTT2=
EXTT3=
EXTT4=
EXTT5=
EXTT6=
EXTT7=
EXTT8=
EXTT9=
EXTT10=
EXTT11=
EXTT12=
EXTT13=
EXTT14=
EXTT15=
EXTT16=
EXTT17=
EXTT18=
EXTT19=
EXTT20=
EXTT21=
EXTT22=
PLAYORDER=
